Coordinates
version=1
nRows=13
nColumns=40
inDegrees=yes

Units are S.I. units (second, meters, Newtons, ...)
If the header above contains a line with 'inDegrees', this indicates whether rotational values are in degrees (yes) or radians (no).

endheader
time	pelvis_tilt	pelvis_list	pelvis_rotation	pelvis_tx	pelvis_ty	pelvis_tz	hip_flexion_r	hip_adduction_r	hip_rotation_r	knee_angle_r	knee_angle_r_beta	ankle_angle_r	subtalar_angle_r	mtp_angle_r	hip_flexion_l	hip_adduction_l	hip_rotation_l	knee_angle_l	knee_angle_l_beta	ankle_angle_l	subtalar_angle_l	mtp_angle_l	lumbar_extension	lumbar_bending	lumbar_rotation	arm_flex_r	arm_add_r	arm_rot_r	elbow_flex_r	pro_sup_r	wrist_flex_r	wrist_dev_r	arm_flex_l	arm_add_l	arm_rot_l	elbow_flex_l	pro_sup_l	wrist_flex_l	wrist_dev_l
     10.43500000	     11.43086271	     -6.61906133	     -2.84921572	     -0.27544488	      0.97389151	     -1.03672063	     51.10835920	     -0.15987771	     -5.98750396	     27.38697754	      0.47799293	     -1.45204656	      0.00000000	      0.00000000	     16.85548291	     -3.93337099	     -6.87943613	     59.12368526	      1.03190297	     27.81239496	      0.00000000	      0.00000000	    -18.20875087	      3.45795920	      3.25019203	     89.84151907	     -7.89643512	     41.96912245	     27.51376375	     85.68645074	      0.00000000	      0.00000000	     89.87044202	    -14.41623835	     44.99033548	     29.73951587	     84.94305899	      0.00000000	      0.00000000
     10.44000000	     11.41326970	     -6.52460208	     -2.90014783	     -0.27549494	      0.97239646	     -1.03656237	     51.19406392	     -0.19285236	     -5.88675063	     27.38699369	      0.47799321	     -1.41935468	      0.00000000	      0.00000000	     17.05146213	     -3.96780696	     -7.10357136	     59.48880856	      1.03827558	     27.93609731	      0.00000000	      0.00000000	    -18.20014560	      3.32850286	      3.27726737	     89.84311534	     -7.91481509	     41.87560844	     27.55225567	     85.72128090	      0.00000000	      0.00000000	     89.87110359	    -14.46381170	     45.07784021	     29.86387359	     84.94562974	      0.00000000	      0.00000000
     10.44500000	     11.42388177	     -6.49622567	     -2.80981073	     -0.27545176	      0.97094557	     -1.03674070	     51.22489314	     -0.31032153	     -5.99277949	     27.38093070	      0.47788739	     -1.54864919	      0.00000000	      0.00000000	     17.22457765	     -4.00571637	     -7.16831452	     59.83928952	      1.04439262	     28.06874706	      0.00000000	      0.00000000	    -18.21297970	      3.30491489	      3.19730449	     89.84315717	     -7.95022682	     41.87348138	     27.55887537	     85.70468668	      0.00000000	      0.00000000	     89.87227067	    -14.39525863	     44.86837874	     29.87202498	     84.97201245	      0.00000000	      0.00000000
     10.45000000	     11.42070585	     -6.42476297	     -2.82881258	     -0.27554825	      0.96953585	     -1.03663033	     51.31313696	     -0.34147151	     -5.92429478	     27.42278964	      0.47861797	     -1.50185605	      0.00000000	      0.00000000	     17.39413469	     -4.04933794	     -7.35603854	     60.17428968	      1.05023948	     28.19201639	      0.00000000	      0.00000000	    -18.24060209	      3.20050675	      3.16285801	     89.84544129	     -7.90547599	     41.68529136	     27.61582514	     85.75128567	      0.00000000	      0.00000000	     89.87367887	    -14.44374785	     44.83005225	     29.99142944	     84.86329054	      0.00000000	      0.00000000
     10.45500000	     11.42454138	     -6.40858140	     -2.78768062	     -0.27556295	      0.96808096	     -1.03673352	     51.35033565	     -0.40836707	     -5.98090080	     27.39499228	      0.47813281	     -1.47265977	      0.00000000	      0.00000000	     17.58080625	     -4.10936292	     -7.43015235	     60.55634340	      1.05690758	     28.31647594	      0.00000000	      0.00000000	    -18.25385872	      3.17336047	      3.15322756	     89.84717533	     -7.94468096	     41.62377330	     27.69517040	     85.69794486	      0.00000000	      0.00000000	     89.87450892	    -14.39864638	     44.79189597	     30.02409526	     84.88370700	      0.00000000	      0.00000000
     10.46000000	     11.37573818	     -6.31642070	     -2.77725476	     -0.27551251	      0.96645189	     -1.03670238	     51.49696199	     -0.49824121	     -5.92630847	     27.45662097	      0.47920844	     -1.46434886	      0.00000000	      0.00000000	     17.80333893	     -4.09586186	     -7.56119614	     60.89629899	      1.06284092	     28.51635412	      0.00000000	      0.00000000	    -18.21389504	      3.07013604	      3.07177106	     89.84824431	     -7.86617235	     41.43676775	     27.69570213	     85.73740119	      0.00000000	      0.00000000	     89.87585076	    -14.43547187	     44.62481828	     30.12629170	     84.86815199	      0.00000000	      0.00000000
     10.46500000	     11.45493352	     -6.29362330	     -2.72795571	     -0.27556860	      0.96530430	     -1.03667341	     51.42868565	     -0.55131213	     -5.99287701	     27.40345851	      0.47828058	     -1.49093746	      0.00000000	      0.00000000	     17.85606479	     -4.17334855	     -7.68695387	     61.17406410	      1.06768884	     28.64917604	      0.00000000	      0.00000000	    -18.32234885	      3.02146975	      3.01067338	     89.85004799	     -7.87564640	     41.28555548	     27.77706242	     85.62043234	      0.00000000	      0.00000000	     89.87661681	    -14.43465517	     44.55697222	     30.16636859	     84.83347766	      0.00000000	      0.00000000
     10.47000000	     11.38879820	     -6.25935875	     -2.71011054	     -0.27559645	      0.96363103	     -1.03687214	     51.58351731	     -0.62617668	     -6.01581919	     27.41885008	      0.47854921	     -1.54322890	      0.00000000	      0.00000000	     18.13368179	     -4.16040767	     -7.69346527	     61.57467060	      1.07468074	     28.89887352	      0.00000000	      0.00000000	    -18.26725376	      2.99089025	      3.00250348	     89.85146309	     -7.95765652	     41.37878286	     27.83300026	     85.62849491	      0.00000000	      0.00000000	     89.87766087	    -14.41892987	     44.55459077	     30.31978499	     84.75702044	      0.00000000	      0.00000000
     10.47500000	     11.41316965	     -6.21006282	     -2.71603810	     -0.27554553	      0.96227266	     -1.03673288	     51.60737051	     -0.65772333	     -6.01540981	     27.41384526	      0.47846186	     -1.48203346	      0.00000000	      0.00000000	     18.25205876	     -4.20641510	     -7.83092310	     61.88293508	      1.08006097	     28.95568348	      0.00000000	      0.00000000	    -18.30448548	      2.91090969	      2.95281545	     89.85194604	     -7.88036160	     41.08576493	     27.82755466	     85.70349962	      0.00000000	      0.00000000	     89.87857401	    -14.40730742	     44.35056893	     30.27985158	     84.73459224	      0.00000000	      0.00000000
     10.48000000	     11.40817097	     -6.09808420	     -2.66569824	     -0.27566913	      0.96080101	     -1.03713555	     51.68677889	     -0.81954371	     -6.02521581	     27.42293226	      0.47862046	     -1.46160552	      0.00000000	      0.00000000	     18.44182924	     -4.06396112	     -7.81292418	     62.18942865	      1.08541029	     29.09413065	      0.00000000	      0.00000000	    -18.32196078	      2.81319517	      2.90737869	     89.85466298	     -7.93018116	     41.01820657	     27.80921118	     85.74375970	      0.00000000	      0.00000000	     89.87943402	    -14.35289383	     44.22775832	     30.33280374	     84.86461339	      0.00000000	      0.00000000
     10.48500000	     11.41449763	     -6.02652300	     -2.65144522	     -0.27557711	      0.95930148	     -1.03728555	     51.75305771	     -0.92113164	     -6.04810451	     27.44385933	      0.47898570	     -1.56679215	      0.00000000	      0.00000000	     18.59927416	     -4.02270567	     -7.87611880	     62.52774832	      1.09131508	     29.25948458	      0.00000000	      0.00000000	    -18.33623475	      2.73636087	      2.86043019	     89.85638084	     -7.92806317	     40.99872785	     27.85378420	     85.70420213	      0.00000000	      0.00000000	     89.87977203	    -14.31644608	     44.06444895	     30.34662639	     84.86734755	      0.00000000	      0.00000000
     10.49000000	     11.44685647	     -5.98385077	     -2.65312134	     -0.27545343	      0.95801102	     -1.03734547	     51.77639848	     -0.96330650	     -6.09929468	     27.46582419	      0.47936906	     -1.27782661	      0.00000000	      0.00000000	     18.69802145	     -4.02297823	     -7.93903937	     62.84022662	      1.09676886	     29.40550902	      0.00000000	      0.00000000	    -18.38087997	      2.67636780	      2.85187583	     89.85748993	     -7.93859339	     40.87628820	     27.84100277	     85.70854744	      0.00000000	      0.00000000	     89.88062538	    -14.28948947	     44.00879704	     30.38714420	     84.71457476	      0.00000000	      0.00000000
     10.49500000	     11.43990935	     -5.88480570	     -2.65422212	     -0.27544133	      0.95653181	     -1.03751970	     51.85920347	     -1.06417919	     -6.02189526	     27.46277379	      0.47931582	     -1.40593427	      0.00000000	      0.00000000	     18.86855642	     -3.90202370	     -7.92986190	     63.12883995	      1.10180611	     29.58639966	      0.00000000	      0.00000000	    -18.37480119	      2.57509985	      2.85396481	     89.85813729	     -7.95863476	     40.82960481	     27.87805413	     85.59395038	      0.00000000	      0.00000000	     89.88153066	    -14.20846691	     43.96218783	     30.36205540	     84.67689552	      0.00000000	      0.00000000
